# xmcd
#
# Track frame offsets:
#	150
#	18212
#	45000
#	71015
#	100057
#
# Disc length: 1575 seconds
#
# Revision: 1
# Processed by: cddbd v1.5.2PL0 Copyright (c) Steve Scherf et al.
# Submitted via: audiograbber 1.83.01
#
DISCID=2e062505
DTITLE=DJ Wondermike - Take Me Away
DYEAR=1994
DGENRE=Eurodance
TTITLE0=Take Me Away (radio mix)
TTITLE1=Take Me Away (club mix)
TTITLE2=Take Me Away (rap plus version)
TTITLE3=Take Me Away (movedroid mix)
TTITLE4=Take Me Away (alternative mix)
EXTD=
EXTT0=
EXTT1=
EXTT2=
EXTT3=
EXTT4=
PLAYORDER=
